<svg class="whiteSvg" width="1440" height="978" viewBox="0 0 1440 978" fill="none" xmlns="http://www.w3.org/2000/svg">
<path fill-rule="evenodd" clip-rule="evenodd" d="M531.51 242.317C472.097 275.562 375.466 383.166 464.238 547.623C575.203 753.193 654.738 782.861 757.882 754.236C861.027 725.611 1032.3 621.858 956.957 402.82C881.61 183.781 707.295 188.341 531.51 242.317ZM586.226 241.857C603.626 233.599 641.92 219.871 655.893 231.029C673.358 244.977 644.175 395.946 616.627 424.899C589.079 453.853 524.64 502.498 456.2 462.994C450.215 457.735 440.757 446.347 450.809 442.869C478.774 443.544 540.928 432.246 565.816 381.651C590.704 331.056 589.792 267.374 586.226 241.857ZM568.842 246.517C562.881 241.839 548.146 254.678 541.523 261.682C549.315 356.66 483.503 378.22 461.544 384.105C443.977 388.814 443.147 410.606 444.927 420.914C442.438 432.366 453.351 446.502 516.914 411.425C596.369 367.579 576.292 252.363 568.842 246.517ZM459.094 374.958C451.279 325.284 498.352 285.999 522.865 272.566C526.878 279.007 531.667 298.836 518.714 326.623C505.76 354.41 473.57 370.424 459.094 374.958ZM595.435 462.934C534.852 500.35 476.116 486.09 454.321 474.283C442.165 472.835 462.925 512.503 474.824 532.518C488.401 524.63 539.763 516.486 636.59 547.009C757.623 585.163 747.327 711.461 744.974 735.623C743.091 754.953 768.348 741.124 781.212 731.793C764.374 675.349 785.058 618.621 803.123 569.077L803.123 569.075L803.124 569.074L803.124 569.073L803.125 569.071L803.127 569.065C805.69 562.035 808.201 555.149 810.544 548.429C827.164 500.765 916.781 495.235 944.235 493.541L944.235 493.541L944.241 493.541C947.931 493.313 950.497 493.155 951.611 492.973C959.126 491.743 949.656 453.951 943.982 435.209C911.174 451.846 853.32 440.879 789.405 410.947C732.676 384.38 711.627 283.369 704.699 250.118C703.821 245.907 703.17 242.782 702.702 241.034C699.369 228.593 680.727 232.217 671.822 235.584C680.334 263.697 671.165 416.165 595.435 462.934ZM481.669 543.429C519.754 535.509 610.311 530.913 667.86 575.886C725.41 620.858 730.809 708.372 726.315 746.507C712.209 754.863 684.466 763.802 686.336 732.71C688.673 693.846 691.174 637.289 645.754 614.166C639.939 611.205 634.212 608.157 628.519 605.126L628.518 605.125L628.518 605.125L628.517 605.125C589.742 584.481 552.489 564.647 499.036 578.974C498.061 580.215 494.301 578.87 487.061 563.554C479.82 548.239 480.449 543.756 481.669 543.429ZM523.298 614.631C513.534 613.326 505.016 597.634 501.977 589.951C601.869 584.11 636.195 622.283 654.678 642.837C658.704 647.315 661.979 650.956 665.016 653.124C678.067 662.441 679.654 709.025 680.469 732.974C680.715 740.175 680.89 745.329 681.287 746.81C682.896 752.817 673.218 748.906 664.757 745.487C664.199 745.262 663.646 745.038 663.102 744.82C658.699 743.053 656.165 728.975 652.895 710.802C649.638 692.699 645.649 670.532 638.352 652.427C625.719 621.082 558.142 616.904 532.121 615.296C528.024 615.042 524.958 614.853 523.298 614.631ZM526.974 628.353C548.959 665.274 603.778 739.346 647.172 740.265C646.862 717.144 640.809 667.456 619.072 653.672C597.336 639.889 548.616 631.049 526.974 628.353ZM715.74 223.813L716.973 224.093C716.299 222.576 715.9 222.576 715.74 223.813ZM716.973 224.093L753.334 232.366C754.995 262.969 767.429 344.283 801.137 370.545C843.273 403.373 897.336 407.512 930.014 383.066C932.737 381.029 938.248 380.859 938.509 396.477C938.598 401.797 940.527 406.916 942.277 411.56C946.948 423.956 950.345 432.971 914.083 433.418C864.234 434.032 755.846 410.137 737.256 315.112C725.579 255.428 719.435 229.636 716.973 224.093ZM767.614 234.422C774.427 234.23 788.592 235.858 790.749 243.908C790.831 244.214 790.938 244.629 791.073 245.147L791.073 245.149L791.074 245.152L791.075 245.155L791.076 245.158L791.077 245.163C795.376 261.756 826.701 382.653 909.134 371.014C994.175 359.007 850.123 409.876 808.571 361.69C788.655 338.594 762.646 267.128 767.614 234.422ZM806.859 245.474C808.851 282.197 839.258 369.349 923.642 359.282C910.306 326.579 864.017 245.057 806.859 245.474ZM868.705 674.028C865.727 647.046 876.658 591.694 944.207 586.14C940.351 612.012 920.89 667.493 873.901 682.44C863.057 685.889 868.705 674.028 868.705 674.028ZM861.451 679.894C860.549 702.882 841.371 711.094 831.894 712.327C823.988 714.446 815.622 673.548 825.198 614.115C832.852 566.608 871.426 559.677 907.627 553.172C916.714 551.539 925.653 549.933 933.915 547.719C969.011 538.312 959.493 556.537 953.733 567.565L953.733 567.565C952.736 569.474 951.852 571.168 951.331 572.465C949.379 577.326 940.092 580.554 926.012 585.449L926.012 585.449C914.631 589.405 900.12 594.45 883.82 602.325C856.19 615.673 858.235 636.826 860.358 658.793C861.037 665.82 861.724 672.93 861.451 679.894ZM797.077 732.444C803.683 729.039 817.993 721.935 822.385 720.758C824.317 720.241 822.732 717.022 820.083 711.643C815.205 701.737 806.717 684.502 809.937 663.306C811.171 655.182 811.534 645.839 811.908 636.213C813.039 607.089 814.271 575.377 840.034 566.998C849.892 563.792 862.353 559.402 875.328 554.83L875.329 554.83C907.473 543.505 942.779 531.066 949.518 532.752C958.978 535.119 974.386 508.439 963.341 507.477C952.296 506.515 868.824 502.415 841.767 533.198C814.71 563.981 798.193 618.044 791.507 660.402C788.598 678.83 784.267 735.877 797.077 732.444Z" fill="#2969F6"/>
<path fill-rule="evenodd" clip-rule="evenodd" d="M686.291 344.95C696.709 350.634 696.451 336.139 691.974 292.851C686.291 237.91 732.695 238.857 727.96 281.484C726.889 291.124 725.528 298.778 724.412 305.048C720.596 326.502 719.662 331.756 743.113 344.95C762.249 355.717 757.218 365.351 750.91 377.429C747.229 384.478 743.113 392.36 743.113 401.786C743.113 407.679 742.057 415.13 740.895 423.329C740.235 427.988 739.541 432.889 738.987 437.882C731.129 444.212 721.867 452.62 714.793 459.151C702.483 470.519 696.8 461.994 702.483 428.839C705.486 411.318 713.514 401.733 719.578 394.493C724.989 388.033 728.837 383.439 726.158 376.739C723.652 370.472 718.751 380.607 714.054 390.317C708.104 402.621 702.483 414.244 702.483 390.948C702.483 349.269 692.064 369.161 693.958 384.318C694.935 392.134 694.149 390.377 692.508 386.711C690.968 383.27 688.675 378.146 686.382 377.687C681.646 376.739 678.805 379.581 685.434 388.107C686.507 389.486 687.505 390.717 688.425 391.851C693.19 397.725 695.852 401.007 695.852 408.947C695.852 409.892 695.862 411.017 695.872 412.256C695.966 423.431 696.137 443.904 690.17 425.997C685.592 412.261 674.241 395.362 668.589 389.961C667.512 385.629 666.443 381.599 665.454 377.871C658.132 350.275 655.207 339.25 686.291 344.95ZM671.937 404.691C676.053 424.934 679.01 450.182 675.874 480.409C675.369 485.284 674.24 489.375 672.683 492.974C678.16 500.526 684.066 510.063 689.223 520.723C698.619 540.146 697.657 515.228 696.751 491.742C696.287 479.719 695.837 468.072 696.799 462.94C698.628 453.182 686.323 430.856 676.569 413.158C674.926 410.177 673.355 407.327 671.937 404.691ZM669.572 498.808C666.929 502.96 663.728 506.543 660.424 510.242C653.364 518.146 645.832 526.578 642.255 542.213C653.022 550.513 681.242 590.01 690.171 607.871C701.535 630.606 698.693 568.086 696.799 546.3C695.705 533.712 681.331 514.165 669.572 498.808ZM640.767 551.115C639.741 561.058 641.991 575.453 646.119 591.868C655.912 603.231 667.375 617.84 676.477 629.441C683.162 637.96 688.574 644.858 691.118 647.656C698.657 655.952 698.393 649.238 697.973 638.509C697.865 635.76 697.747 632.749 697.747 629.658C697.747 622.512 695.851 621.262 692.657 619.157C689.076 616.797 683.864 613.362 677.859 599.346C672.124 585.959 662.528 575.951 654.187 567.25C648.674 561.5 643.708 556.321 640.767 551.115ZM650.295 607.091C660.199 640.711 675.549 679.149 686.276 704.88C686.874 703.287 687.681 701.305 688.592 699.065C692.77 688.797 699.148 673.12 697.747 664.707C696.845 659.298 679.005 639.305 661.264 619.423C657.551 615.263 653.843 611.107 650.295 607.091ZM692.487 719.62C693.221 721.346 693.901 722.942 694.521 724.395C695.371 726.389 696.106 728.114 696.709 729.538C706.08 751.695 723.882 697.956 738.394 642.805C731.133 648.941 724.613 653.976 720.476 656.183C709.112 662.245 707.534 699.125 708.165 716.807C704.649 723.843 697.792 723.111 692.487 719.62ZM742.35 627.43C742.606 626.415 742.86 625.403 743.113 624.392C746.506 610.815 751.182 597.997 755.971 586.078C747.554 593.157 737.213 601.328 726.158 609.767C701.403 628.664 702.191 630.079 705.095 635.289C706.412 637.652 708.165 640.797 708.165 646.71C708.165 659.867 724.152 644.697 740.899 628.806C741.382 628.348 741.866 627.889 742.35 627.43ZM763.879 567.01C777.109 535.392 785.774 512.022 761.106 500.301C739.755 490.157 736.756 468.275 738.205 446.531C727.67 456.775 714.456 468.099 708.165 470.519C698.769 474.134 700.405 497.062 701.707 515.297C702.111 520.954 702.483 526.159 702.483 530.197C702.483 541.776 710.781 531.513 721.148 518.69C726.047 512.63 731.409 505.999 736.575 500.831C752.673 484.728 747.939 510.304 720.476 530.197C702.365 543.315 702.788 549.018 703.545 559.26C703.937 564.548 704.418 571.047 702.483 580.401C699.268 595.94 713.932 579.351 730.019 561.152C742.372 547.177 755.563 532.254 762.145 530.197C774.267 526.408 767.196 539.353 762.145 546.3C746.677 558.93 713.089 589.306 702.483 609.767C695.508 623.221 708.712 611.774 725.827 596.935C738.583 585.876 753.511 572.933 763.879 567.01Z" fill="#E0FC52"/>
<path fill-rule="evenodd" clip-rule="evenodd" d="M256.996 623.072C251.663 621.981 243.515 617.915 253.595 610.375C266.194 600.949 274.383 603.291 275.24 612.134C276.096 620.977 264.005 632.301 256.996 623.072ZM414.202 550.884C409.627 549.871 405.163 548.882 401.45 547.597C379.283 539.929 359.528 545.224 372.807 555.274C384.592 564.193 390.696 563.917 396.129 563.67C396.818 563.639 397.497 563.608 398.174 563.597C401.271 563.544 401.951 563.957 403.242 564.74C403.959 565.176 404.865 565.725 406.48 566.373C411.595 568.531 416.312 573.718 394.259 577.209C383.545 578.905 369.524 584.457 355.191 590.132C332.644 599.06 309.325 608.293 296.894 603.305C297.322 593.613 284.366 574.605 274.267 564.006C261.643 550.756 251.689 561.119 259.425 578.704C263.789 588.626 269.166 591.537 274.24 594.284C278.158 596.406 281.896 598.43 284.849 603.509L285.806 618.373C285.7 624.795 281.714 627.893 277.254 631.359C274.33 633.631 271.202 636.062 268.831 639.692C262.389 649.552 268.544 657.914 280.589 657.71C289.773 657.555 290.647 649.528 291.526 641.462C291.835 638.619 292.145 635.772 292.819 633.262C289.426 628.123 293.899 619.228 300.673 617.413C302.243 616.992 304.86 616.408 308.208 615.66C322.916 612.375 351.716 605.942 367.649 596.438C383.298 587.105 398.629 585.994 404.338 586.605C404.565 586.577 404.793 586.549 405.022 586.521C411.673 585.706 418.597 584.856 407.361 597.892C394.325 613.016 387.81 632.908 396.038 630.702C398.23 630.115 399.968 629.889 401.485 629.691C406.8 629 409.398 628.662 419.33 614.341C432.096 595.934 443.965 576.45 440.825 564.729C438.561 556.28 426.013 553.5 414.202 550.884Z" fill="#E0FC52"/>
<path fill-rule="evenodd" clip-rule="evenodd" d="M1228.99 436.781C1233.63 433.93 1239.89 427.32 1227.84 423.686C1212.78 419.143 1205.89 424.147 1208.11 432.749C1210.33 441.352 1225.56 447.853 1228.99 436.781ZM1056.58 422.772C1060.54 420.254 1064.39 417.796 1067.44 415.318C1085.65 400.524 1106.02 398.736 1096.98 412.725C1088.96 425.141 1083.13 426.97 1077.94 428.599C1077.28 428.806 1076.63 429.009 1075.99 429.23C1073.06 430.241 1072.57 430.862 1071.62 432.039C1071.1 432.694 1070.43 433.521 1069.14 434.683C1065.07 438.461 1062.41 444.95 1084.33 440.68C1094.97 438.606 1110.05 439.022 1125.46 439.448C1149.69 440.117 1174.76 440.81 1184.74 431.867C1181.02 422.907 1186.69 400.611 1192.56 387.194C1199.89 370.422 1212.79 376.752 1211.53 395.923C1210.82 406.741 1206.77 411.317 1202.94 415.635C1199.98 418.97 1197.16 422.151 1196.13 427.935L1200.31 442.23C1202.61 448.227 1207.41 449.773 1212.79 451.503C1216.31 452.638 1220.08 453.851 1223.55 456.449C1232.98 463.509 1230.06 473.473 1218.67 477.405C1209.98 480.404 1206.42 473.161 1202.83 465.882C1201.57 463.317 1200.31 460.748 1198.81 458.621C1200.24 452.63 1193 445.804 1186.01 446.417C1184.39 446.559 1181.74 446.906 1178.33 447.35C1163.39 449.298 1134.13 453.113 1115.91 449.638C1098.01 446.226 1083.23 450.43 1078.07 452.959C1077.85 453.012 1077.62 453.063 1077.4 453.115C1070.87 454.626 1064.07 456.198 1079.09 464.6C1096.51 474.348 1109.44 490.809 1100.95 491.553C1098.69 491.751 1096.98 492.134 1095.49 492.468C1090.26 493.638 1087.7 494.21 1073.47 484.154C1055.18 471.229 1037.36 456.985 1036.3 444.896C1035.54 436.182 1046.38 429.274 1056.58 422.772Z" fill="#E0FC52"/>
<path fill-rule="evenodd" clip-rule="evenodd" d="M848.889 967.816C852.361 972.008 859.783 977.283 861.697 964.844C864.09 949.295 858.171 943.171 849.963 946.575C841.754 949.979 837.446 965.973 848.889 967.816ZM838.662 795.165C841.708 798.724 844.681 802.198 847.561 804.869C864.756 820.819 869.375 840.739 854.258 833.751C840.842 827.549 838.215 822.034 835.877 817.124C835.58 816.501 835.289 815.888 834.98 815.285C833.57 812.529 832.885 812.123 831.587 811.352C830.865 810.924 829.954 810.383 828.622 809.264C824.312 805.766 817.514 804.044 824.806 825.143C828.348 835.393 830.043 850.374 831.776 865.689C834.501 889.78 837.32 914.696 847.571 923.318C855.924 918.381 878.796 920.871 892.902 924.795C910.536 929.7 906.07 943.356 886.91 944.803C876.098 945.62 871 942.246 866.189 939.061C862.473 936.602 858.929 934.257 853.056 934.04L839.485 940.188C833.867 943.302 833.008 948.276 832.046 953.841C831.415 957.49 830.741 961.393 828.653 965.192C822.98 975.513 812.703 974.017 807.218 963.294C803.035 955.118 809.709 950.571 816.415 946.002C818.779 944.392 821.146 942.779 823.044 941.004C829.176 941.58 834.923 933.45 833.34 926.62C832.973 925.037 832.258 922.453 831.343 919.148C827.325 904.626 819.456 876.192 820.35 857.664C821.228 839.468 814.997 825.419 811.772 820.67C811.689 820.457 811.606 820.242 811.524 820.027C809.115 813.776 806.608 807.267 800.387 823.311C793.169 841.927 778.675 857.032 776.752 848.735C776.24 846.524 775.622 844.885 775.082 843.454C773.192 838.439 772.269 835.989 780.238 820.49C790.48 800.569 802.095 780.933 813.919 778.189C822.441 776.212 830.797 785.975 838.662 795.165Z" fill="#E0FC52"/>
<path fill-rule="evenodd" clip-rule="evenodd" d="M277.367 181.532C274.367 176.99 271.483 168.353 283.941 170.147C299.514 172.388 303.647 179.834 297.999 186.694C292.351 193.554 275.795 193.015 277.367 181.532ZM439.555 241.624C437.037 237.672 434.581 233.817 432.864 230.283C422.616 209.188 404.905 198.965 407.186 215.462C409.209 230.102 413.72 234.221 417.736 237.889C418.245 238.354 418.746 238.812 419.234 239.283C421.46 241.435 421.649 242.208 422.007 243.674C422.207 244.49 422.458 245.519 423.142 247.119C425.232 252.261 424.898 259.265 406.838 246.142C398.065 239.767 384.227 233.78 370.081 227.661C347.828 218.034 324.812 208.077 319.551 195.76C326.708 189.208 330.991 166.604 331.348 151.967C331.793 133.671 317.427 133.963 310.46 151.869C306.529 161.973 308.271 167.833 309.915 173.363C311.185 177.634 312.396 181.708 310.892 187.388L301.057 198.578C296.44 203.045 291.431 202.417 285.827 201.716C282.153 201.255 278.223 200.763 273.98 201.654C262.453 204.073 260.89 214.339 269.55 222.711C276.153 229.094 282.447 224.035 288.772 218.951C291.001 217.16 293.234 215.365 295.485 214.067C296.721 208.033 306.174 204.905 312.246 208.41C313.653 209.222 315.917 210.659 318.812 212.497C331.534 220.573 356.443 236.385 374.429 240.929C392.092 245.391 403.716 255.444 407.319 259.913C407.5 260.055 407.681 260.196 407.862 260.338C413.141 264.463 418.637 268.758 401.475 270.034C381.563 271.513 362.889 280.976 370.266 285.233C372.232 286.368 373.62 287.437 374.832 288.37C379.078 291.639 381.153 293.236 398.303 290.13C420.345 286.137 442.515 280.748 448.585 270.238C452.96 262.662 446.054 251.824 439.555 241.624Z" fill="#E0FC52"/>
<path fill-rule="evenodd" clip-rule="evenodd" d="M975.281 74.571C979.824 71.5712 988.462 68.6858 986.666 81.1427C984.421 96.7137 976.973 100.848 970.113 95.2022C963.254 89.5561 963.797 73.0025 975.281 74.571ZM915.146 236.752C919.098 234.234 922.955 231.777 926.489 230.06C947.59 219.808 957.818 202.098 941.319 204.381C926.676 206.408 922.555 210.919 918.886 214.935C918.421 215.444 917.963 215.946 917.492 216.433C915.339 218.659 914.566 218.848 913.099 219.207C912.284 219.407 911.254 219.659 909.654 220.342C904.51 222.433 897.506 222.101 910.634 204.041C917.012 195.267 923.002 181.429 929.126 167.284C938.759 145.031 948.722 122.017 961.042 116.754C967.593 123.908 990.199 128.186 1004.84 128.539C1023.14 128.981 1022.85 114.617 1004.94 107.654C994.836 103.726 988.975 105.469 983.444 107.114C979.172 108.385 975.097 109.597 969.417 108.094L958.227 98.2622C953.761 93.647 954.39 88.6387 955.093 83.0354C955.554 79.3614 956.047 75.4316 955.157 71.1891C952.74 59.6642 942.473 58.1039 934.099 66.7642C927.713 73.3678 932.771 79.6603 937.854 85.9834C939.646 88.2117 941.44 90.4438 942.738 92.6947C948.772 93.9286 951.899 103.38 948.392 109.452C947.579 110.859 946.141 113.123 944.303 116.019C936.224 128.74 920.404 153.65 915.855 171.634C911.389 189.296 901.331 200.92 896.861 204.525C896.72 204.705 896.578 204.886 896.436 205.068C892.309 210.346 888.013 215.843 886.741 198.683C885.265 178.774 875.805 160.105 871.546 167.482C870.411 169.447 869.342 170.836 868.408 172.048C865.138 176.294 863.54 178.369 866.643 195.516C870.631 217.555 876.016 239.72 886.526 245.787C894.102 250.16 904.943 243.253 915.146 236.752Z" fill="#E0FC52"/>
<path fill-rule="evenodd" clip-rule="evenodd" d="M427.773 769.227C422.608 770.949 413.518 771.501 418.477 759.933C424.677 745.473 432.941 743.406 438.105 750.635C443.269 757.864 438.459 773.714 427.773 769.227ZM481.682 695.574C478.476 700.568 474.496 706.769 468.845 713.443C466.47 716.247 464.759 718.656 463.275 720.743C459.848 725.565 457.638 728.673 451.283 731.003C441.325 734.652 434.258 727.269 427.174 719.869C422.426 714.91 417.67 709.942 412.033 708.285C394.473 703.123 391.034 717.073 406.528 728.432C415.27 734.842 421.382 734.675 427.151 734.517C431.605 734.395 435.855 734.279 440.953 737.201L447.149 747.528C450.268 753.142 448.365 757.818 446.235 763.048C444.839 766.478 443.346 770.147 443.107 774.475C442.458 786.233 451.971 790.397 462.301 784.199C470.179 779.473 466.922 772.085 463.649 764.662C462.495 762.046 461.34 759.425 460.669 756.915C459.961 754.263 459.258 752.174 458.676 750.443C456.967 745.362 456.293 743.36 459.546 739.264C460.223 738.411 460.911 737.333 461.746 736.025C463.957 732.561 467.2 727.48 474.009 720.672C487.755 706.928 498.24 705.355 504.428 704.427C509.263 703.702 511.475 703.37 510.569 697.934C508.625 686.266 502.671 685.236 495.679 684.027C495.245 683.952 494.806 683.876 494.364 683.796C489.77 682.974 486.661 687.817 481.682 695.574Z" fill="#E0FC52"/>
<path fill-rule="evenodd" clip-rule="evenodd" d="M1118.51 632.575C1123.95 632.425 1132.68 629.831 1124.07 620.659C1113.3 609.195 1104.82 610.082 1102.44 618.643C1100.07 627.203 1110.01 640.45 1118.51 632.575ZM1042.67 581.825C1047.39 585.42 1053.25 589.884 1060.84 594.22C1064.03 596.042 1066.46 597.719 1068.57 599.172C1073.44 602.53 1076.58 604.694 1083.35 604.707C1093.95 604.727 1098.07 595.37 1102.19 585.992C1104.96 579.706 1107.73 573.411 1112.46 569.923C1127.19 559.061 1135.19 570.992 1124.52 586.97C1118.5 595.986 1112.7 597.921 1107.22 599.748C1103 601.158 1098.96 602.504 1095.17 606.994L1092.88 618.82C1091.87 625.163 1095.26 628.904 1099.05 633.09C1101.54 635.835 1104.19 638.77 1105.9 642.756C1110.53 653.582 1103.02 660.752 1091.19 658.464C1082.17 656.72 1082.7 648.663 1083.24 640.568C1083.43 637.715 1083.62 634.857 1083.39 632.268C1083.15 629.535 1083.09 627.331 1083.05 625.505C1082.92 620.146 1082.87 618.034 1078.41 615.299C1077.48 614.729 1076.47 613.952 1075.23 613.008C1071.97 610.51 1067.19 606.847 1058.46 602.781C1040.84 594.573 1030.45 596.684 1024.32 597.931C1019.53 598.904 1017.34 599.35 1016.33 593.932C1014.16 582.303 1019.41 579.296 1025.56 575.767C1025.95 575.547 1026.33 575.326 1026.72 575.1C1030.76 572.754 1035.33 576.241 1042.67 581.825Z" fill="#E0FC52"/>
<path fill-rule="evenodd" clip-rule="evenodd" d="M524.372 97.6541C525.464 92.321 529.532 84.174 537.071 94.2504C546.495 106.846 544.151 115.035 535.307 115.893C526.463 116.751 515.14 104.665 524.372 97.6541ZM561.2 181.147C558.478 175.875 555.099 169.329 552.144 161.101C550.903 157.643 549.673 154.957 548.608 152.629C546.146 147.252 544.558 143.784 545.72 137.117C547.539 126.67 557.469 124.24 567.422 121.805C574.093 120.172 580.774 118.537 585.029 114.484C598.283 101.859 587.92 91.9088 570.332 99.647C560.407 104.014 557.495 109.39 554.746 114.464C552.624 118.382 550.599 122.12 545.518 125.074L533.474 125.278C527.051 125.173 523.954 121.188 520.488 116.729C518.216 113.806 515.786 110.679 512.156 108.309C502.297 101.87 493.932 108.026 494.133 120.07C494.287 129.253 502.314 130.125 510.381 131.001C513.224 131.31 516.072 131.619 518.581 132.293C521.232 133.005 523.393 133.441 525.184 133.802C530.439 134.861 532.51 135.279 534.431 140.142C534.831 141.155 535.42 142.29 536.136 143.667C538.03 147.313 540.809 152.66 543.3 161.959C548.329 180.731 544.446 190.596 542.155 196.418C540.365 200.968 539.546 203.049 544.707 204.982C555.786 209.131 559.656 204.489 564.201 199.039C564.483 198.701 564.768 198.359 565.058 198.015C568.068 194.449 565.428 189.335 561.2 181.147Z" fill="#E0FC52"/>
<path fill-rule="evenodd" clip-rule="evenodd" d="M1006.43 809.528C1008.33 814.63 1009.19 823.694 997.46 819.138C982.795 813.442 980.448 805.255 987.498 799.845C994.548 794.435 1010.55 798.695 1006.43 809.528ZM930.978 758.199C936.079 761.23 942.412 764.993 949.276 770.41C952.16 772.686 954.625 774.313 956.762 775.723C961.698 778.982 964.881 781.083 967.426 787.353C971.413 797.178 964.274 804.495 957.119 811.829C952.323 816.745 947.52 821.668 946.055 827.359C941.493 845.084 955.554 848.039 966.381 832.165C972.49 823.208 972.115 817.106 971.761 811.347C971.487 806.9 971.226 802.657 973.973 797.462L984.084 790.914C989.59 787.604 994.327 789.344 999.628 791.292C1003.1 792.569 1006.82 793.935 1011.16 794.024C1022.93 794.267 1026.77 784.617 1020.22 774.508C1015.23 766.799 1007.96 770.309 1000.65 773.835C998.072 775.078 995.492 776.323 993.006 777.08C990.38 777.879 988.316 778.654 986.605 779.295C981.585 781.178 979.607 781.92 975.402 778.812C974.526 778.164 973.426 777.514 972.089 776.724C968.551 774.634 963.363 771.569 956.325 765C942.12 751.738 940.191 741.315 939.052 735.163C938.163 730.357 937.756 728.158 932.353 729.25C920.756 731.595 919.93 737.581 918.959 744.609C918.899 745.046 918.838 745.487 918.774 745.932C918.108 750.551 923.055 753.491 930.978 758.199Z" fill="#E0FC52"/>
<path fill-rule="evenodd" clip-rule="evenodd" d="M763.119 76.1041C765.554 71.235 771.593 64.4181 776.266 76.1027C782.108 90.7084 777.724 98.0121 768.96 96.5524C760.195 95.0928 752.387 80.4872 763.119 76.1041ZM777.078 166.288C775.814 160.491 774.244 153.293 773.52 144.58C773.216 140.918 772.724 138.006 772.297 135.481C771.311 129.65 770.675 125.889 773.523 119.749C777.985 110.129 788.205 110.351 798.448 110.574C805.314 110.724 812.19 110.873 817.349 108.059C833.419 99.2937 825.985 87.0001 806.994 89.9235C796.278 91.5731 792.074 96.0126 788.105 100.203C785.041 103.438 782.118 106.525 776.446 108.064L764.76 105.144C758.584 103.38 756.623 98.7293 754.43 93.5258C752.992 90.114 751.454 86.4647 748.562 83.2358C740.706 74.4645 731.033 78.2462 728.11 89.9321C725.881 98.8429 733.409 101.763 740.974 104.697C743.64 105.731 746.31 106.766 748.559 108.067C750.936 109.44 752.91 110.42 754.547 111.233C759.348 113.616 761.24 114.556 761.836 119.75C761.961 120.832 762.236 122.081 762.571 123.597C763.457 127.609 764.757 133.493 764.755 143.121C764.753 162.555 758.45 171.08 754.73 176.111C751.823 180.042 750.493 181.841 754.978 185.044C764.605 191.918 769.544 188.436 775.344 184.348C775.705 184.094 776.069 183.837 776.438 183.581C780.268 180.914 779.042 175.292 777.078 166.288Z" fill="#E0FC52"/>
<path fill-rule="evenodd" clip-rule="evenodd" d="M664.263 921.412C661.351 926.012 654.659 932.188 651.182 920.093C646.837 904.975 651.932 898.148 660.505 900.48C669.079 902.812 675.38 918.128 664.263 921.412ZM659.428 830.281C660.104 836.175 660.943 843.495 660.788 852.237C660.723 855.911 660.92 858.858 661.091 861.412C661.487 867.314 661.742 871.119 658.292 876.942C652.887 886.066 642.741 884.819 632.572 883.569C625.756 882.731 618.93 881.891 613.514 884.173C596.646 891.282 602.807 904.26 621.995 903.258C632.823 902.692 637.452 898.697 641.821 894.926C645.194 892.015 648.413 889.237 654.21 888.276L665.544 892.354C671.512 894.729 672.995 899.553 674.654 904.951C675.742 908.49 676.906 912.275 679.459 915.778C686.395 925.294 696.398 922.502 700.48 911.169C703.592 902.527 696.396 898.866 689.164 895.187C686.616 893.891 684.063 892.592 681.955 891.072C679.729 889.467 677.863 888.294 676.317 887.321C671.779 884.467 669.991 883.343 669.919 878.114C669.904 877.025 669.755 875.755 669.575 874.214C669.096 870.133 668.394 864.148 669.362 854.569C671.316 835.233 678.443 827.383 682.65 822.751C685.936 819.131 687.44 817.475 683.299 813.838C674.412 806.032 669.148 809 662.967 812.486C662.583 812.702 662.195 812.921 661.802 813.139C657.723 815.408 658.379 821.125 659.428 830.281Z" fill="#E0FC52"/>
<path d="M570.522 797.085C562.745 806.983 571.669 808.795 577.104 808.464C586.269 815.556 595.006 801.483 591.883 793.166C588.76 784.849 580.243 784.713 570.522 797.085Z" fill="#E0FC52"/>
<path d="M1010.46 671.964C1021.15 678.601 1013.39 683.359 1008.17 684.909C1001.98 694.711 988.96 684.478 989.05 675.594C989.14 666.71 997.096 663.667 1010.46 671.964Z" fill="#E0FC52"/>
<path d="M664.276 171.276C656.499 181.174 665.423 182.986 670.857 182.655C680.023 189.747 688.76 175.674 685.637 167.357C682.514 159.04 673.997 158.905 664.276 171.276Z" fill="#E0FC52"/>
<path d="M337.253 364.872C351.277 363.702 381.074 398.462 394.219 415.988C394.218 430.594 375.226 439.36 360.616 458.35C346.005 477.34 327.014 487.567 319.71 483.185C312.406 478.804 332.861 448.129 353.314 439.363C369.676 432.35 360.132 428.651 353.315 427.678C347.959 425.61 332.864 422.715 315.334 427.682C293.421 433.89 213.076 430.614 204.311 430.615C197.298 430.616 199.44 442.301 201.387 448.143C205.282 455.446 210.734 472.097 201.384 480.277C189.696 490.503 183.854 481.74 182.394 470.055C181.227 460.707 186.78 437.92 189.703 427.695L156.104 427.699L151.718 458.373C149.77 465.676 143.827 479.407 135.647 475.902C125.422 471.522 132.727 458.375 142.955 439.386C151.138 424.194 144.418 425.266 140.035 427.701L104.975 427.705C96.2102 427.706 100.59 451.075 96.2063 462.761C91.8227 474.447 84.5185 472.987 78.6763 462.763C74.0026 454.584 88.4192 426.246 96.2115 416.021C93.7772 411.639 86.8638 399.955 78.6845 388.27C68.4603 373.665 72.8437 364.901 84.5308 360.518C96.2179 356.134 100.599 372.201 100.596 398.492C100.593 424.784 121.046 413.097 132.732 416.017C144.418 418.937 151.723 408.711 140.039 388.264C128.355 367.816 123.974 348.828 140.042 360.512C152.896 369.858 156.107 399.46 156.105 413.093C173.148 416.012 204.312 420.099 192.626 413.089C178.019 404.326 182.403 383.877 179.484 364.889C176.564 345.901 195.554 356.123 204.317 372.19C211.328 385.042 207.235 406.758 204.312 416.009C221.841 429.153 318.257 413.075 346.012 415.993C368.216 418.328 365.003 412.096 360.621 408.688C356.726 405.768 347.767 399.634 343.092 398.466C337.249 397.006 332.867 391.164 322.643 378.019C312.419 364.875 319.723 366.334 337.253 364.872Z" fill="#E0FC52"/>
<path d="M58.2305 411.643C46.5434 416.318 53.3599 422.355 58.2291 424.789C62.6104 435.517 77.2195 427.708 78.6813 418.944C80.1431 410.18 72.8394 405.799 58.2305 411.643Z" fill="#E0FC52"/>
<path d="M971.565 264.421C958.835 270.421 950.406 315.427 947.782 337.179C955.085 349.828 975.914 347.921 998.06 357.06C1020.21 366.198 1041.76 365.557 1045.9 358.11C1050.03 350.663 1016.99 334.327 994.892 336.964C977.216 339.074 983.632 331.097 989.05 326.845C992.654 322.376 1004.28 312.32 1021.94 307.853C1044.02 302.271 1111.97 259.251 1119.56 254.868C1125.63 251.362 1129.62 262.552 1130.85 268.586C1131.13 276.858 1134.73 294.005 1146.92 296.413C1162.15 299.423 1162.83 288.912 1158.25 278.063C1154.59 269.383 1138.39 252.427 1130.75 245.034L1159.85 228.233L1178.98 252.604C1184.32 257.955 1196.33 266.874 1201.66 259.748C1208.33 250.84 1195.43 243.108 1177.08 231.778C1162.4 222.714 1168.75 220.282 1173.77 220.198L1204.13 202.667C1211.72 198.285 1219.61 220.714 1229.25 228.642C1238.89 236.569 1244.48 231.652 1244.43 219.876C1244.39 210.455 1217.74 193.124 1205.88 188.166C1205.8 183.154 1205.95 169.577 1207.19 155.368C1208.74 137.606 1200.56 132.208 1188.25 134.257C1175.94 136.306 1180.18 152.411 1193.32 175.179C1206.47 197.946 1182.91 198.054 1174.25 206.427C1165.59 214.801 1154.15 209.599 1154.05 186.047C1153.95 162.495 1148.25 143.86 1140.18 162.014C1133.72 176.538 1145.73 203.779 1152.55 215.585C1139.25 226.636 1114.3 245.761 1120.92 233.846C1129.19 218.952 1115.17 203.436 1108.21 185.531C1101.24 167.627 1089.91 185.977 1090.35 204.273C1090.7 218.911 1105.1 235.67 1112.26 242.22C1103.65 262.369 1012.11 296.666 989.534 313.074C971.471 326.201 971.139 319.197 973.23 314.054C975.144 309.577 979.836 299.784 983.301 296.435C987.631 292.248 988.506 284.997 990.789 268.5C993.073 252.003 987.478 256.92 971.565 264.421Z" fill="#E0FC52"/>
<path d="M1236.59 165.379C1249.04 163.583 1246.16 172.22 1243.16 176.763C1244.73 188.246 1228.17 188.789 1222.52 181.93C1216.88 175.071 1221.01 167.624 1236.59 165.379Z" fill="#E0FC52"/>
</svg>
