<svg width="548" height="553" viewBox="0 0 548 553" fill="none" xmlns="http://www.w3.org/2000/svg">
    <path fill-rule="evenodd" clip-rule="evenodd" d="M103.51 31.3172C44.0973 64.5622 -52.5346 172.166 36.2376 336.623C147.203 542.193 226.738 571.861 329.882 543.236C433.027 514.611 604.304 410.858 528.957 191.82C453.61 -27.2189 279.295 -22.6595 103.51 31.3172ZM158.225 30.8573C175.626 22.5986 213.92 8.87086 227.892 20.0291C245.358 33.9769 216.174 184.946 188.627 213.899C161.079 242.853 96.6401 291.498 28.1997 251.994C22.2146 246.735 12.7571 235.347 22.8085 231.869C50.7743 232.544 112.928 221.246 137.816 170.651C162.703 120.056 161.792 56.3739 158.225 30.8573ZM140.841 35.5165C134.881 30.839 120.146 43.6778 113.523 50.6819C121.314 145.66 55.5031 167.22 33.5442 173.105C15.9771 177.814 15.1466 199.606 16.9272 209.914C14.4381 221.366 25.3507 235.502 88.9142 200.425C168.369 156.579 148.292 41.3635 140.841 35.5165ZM31.0937 163.958C23.2786 114.284 70.3514 74.9988 94.8647 61.5656C98.8783 68.0067 103.667 87.8359 90.7134 115.623C77.7597 143.41 45.5696 159.424 31.0937 163.958ZM167.435 251.934C106.852 289.35 48.1156 275.09 26.3205 263.283C14.1648 261.835 34.9244 301.503 46.8237 321.518C60.4011 313.63 111.763 305.486 208.589 336.009C329.623 374.163 319.327 500.461 316.974 524.623C315.091 543.953 340.348 530.124 353.212 520.793C336.374 464.349 357.058 407.621 375.122 358.077L375.123 358.075L375.123 358.074L375.124 358.073L375.124 358.071L375.127 358.065C377.69 351.035 380.201 344.149 382.544 337.429C399.163 289.765 488.781 284.235 516.234 282.541L516.235 282.541L516.241 282.541C519.931 282.313 522.497 282.155 523.61 281.973C531.126 280.743 521.656 242.951 515.982 224.209C483.174 240.846 425.32 229.879 361.405 199.947C304.676 173.38 283.627 72.3688 276.699 39.1185C275.821 34.9069 275.17 31.7824 274.702 30.0341C271.369 17.593 252.727 21.2168 243.822 24.5838C252.334 52.6972 243.164 205.165 167.435 251.934ZM53.6692 332.429C91.7541 324.509 182.311 319.913 239.86 364.886C297.41 409.858 302.809 497.372 298.315 535.507C284.209 543.863 256.466 552.802 258.335 521.71C260.673 482.846 263.174 426.289 217.754 403.166C211.939 400.205 206.212 397.157 200.519 394.126L200.518 394.125L200.517 394.125L200.517 394.125C161.742 373.481 124.489 353.647 71.0361 367.974C70.0613 369.215 66.3014 367.87 59.0605 352.554C51.8196 337.239 52.4493 332.756 53.6692 332.429ZM95.2977 403.631C85.534 402.326 77.0155 386.634 73.9768 378.951C173.869 373.11 208.195 411.283 226.678 431.837C230.704 436.315 233.979 439.956 237.016 442.124C250.067 451.441 251.653 498.025 252.469 521.974C252.714 529.175 252.89 534.329 253.286 535.81C254.896 541.817 245.218 537.906 236.757 534.487C236.199 534.262 235.646 534.038 235.102 533.82C230.699 532.053 228.165 517.975 224.895 499.802C221.637 481.699 217.649 459.532 210.352 441.427C197.718 410.082 130.141 405.904 104.121 404.296C100.024 404.042 96.9578 403.853 95.2977 403.631ZM98.9735 417.353C120.959 454.274 175.778 528.346 219.172 529.265C218.862 506.144 212.808 456.456 191.072 442.672C169.336 428.889 120.616 420.049 98.9735 417.353ZM287.74 12.8131L288.972 13.0935C288.298 11.5765 287.9 11.5762 287.74 12.8131ZM288.972 13.0935L325.334 21.366C326.995 51.9689 339.428 133.283 373.137 159.545C415.273 192.373 469.336 196.512 502.014 172.066C504.737 170.029 510.248 169.859 510.509 185.477C510.598 190.797 512.527 195.916 514.277 200.56C518.948 212.956 522.345 221.971 486.083 222.418C436.234 223.032 327.846 199.137 309.255 104.112C297.579 44.4279 291.435 18.6362 288.972 13.0935ZM339.614 23.4215C346.427 23.2296 360.592 24.8583 362.749 32.9084C362.831 33.214 362.938 33.6295 363.072 34.1474L363.073 34.1494L363.074 34.1518L363.074 34.1548L363.075 34.1585L363.077 34.163C367.376 50.7564 398.701 171.653 481.134 160.014C566.175 148.007 422.123 198.876 380.571 150.69C360.655 127.594 334.646 56.1277 339.614 23.4215ZM378.858 34.4735C380.851 71.1971 411.258 158.349 495.642 148.282C482.305 115.579 436.016 34.0572 378.858 34.4735ZM440.705 463.028C437.727 436.046 448.658 380.694 516.207 375.14C512.35 401.012 492.89 456.493 445.901 471.44C435.057 474.889 440.705 463.028 440.705 463.028ZM433.451 468.894C432.549 491.882 413.37 500.094 403.894 501.327C395.988 503.446 387.622 462.548 397.198 403.115C404.852 355.608 443.426 348.677 479.626 342.172C488.714 340.539 497.653 338.933 505.915 336.719C541.011 327.312 531.493 345.537 525.733 356.565L525.733 356.565C524.736 358.474 523.852 360.168 523.331 361.465C521.379 366.326 512.092 369.554 498.012 374.449L498.011 374.449C486.631 378.405 472.12 383.45 455.82 391.325C428.19 404.673 430.235 425.826 432.358 447.793C433.037 454.82 433.724 461.93 433.451 468.894ZM369.077 521.444C375.683 518.039 389.993 510.935 394.385 509.758C396.317 509.241 394.732 506.022 392.083 500.643C387.205 490.737 378.717 473.502 381.937 452.306C383.171 444.182 383.533 434.839 383.907 425.213C385.039 396.089 386.271 364.377 412.034 355.998C421.892 352.792 434.352 348.402 447.328 343.83L447.329 343.83C479.473 332.505 514.779 320.066 521.518 321.752C530.978 324.119 546.386 297.439 535.341 296.477C524.296 295.515 440.824 291.415 413.767 322.198C386.71 352.981 370.193 407.044 363.507 449.402C360.598 467.83 356.267 524.877 369.077 521.444Z" fill="#2969F6"/>
</svg>
