<svg width="83" height="53" viewBox="0 0 83 53" fill="none" xmlns="http://www.w3.org/2000/svg">
<path d="M64.3978 5.23322C65.2262 13.6656 60.8208 23.4844 80.3993 27.3215C86.4774 38.5057 75.37 30.1263 64.0875 27.915C52.8049 25.7038 70.1205 44.6038 59.9902 48.8209C49.8598 53.038 52.8131 45.0022 55.4146 31.7286C58.0161 18.4551 50.4304 29.0288 41.9526 31.8469C33.4748 34.6649 50.3735 48.6591 40.7051 52.2775C31.0367 55.896 39.1995 23.0373 34.8672 34.5933C30.5349 46.1492 28.8439 54.777 24.1264 52.4741C19.409 50.1712 39.5314 23.1023 24.6068 39.474C9.68223 55.8458 1.27463 42.4821 0.265799 38.8385C-0.743028 35.1949 15.9723 36.0589 22.5892 32.1869C29.206 28.3149 9.62081 22.7535 13.648 18.0294C17.6751 13.3053 17.9035 20.931 23.8899 25.5501C29.8763 30.1692 42.8764 30.6496 34.8273 24.2479C26.7781 17.8461 25.4892 10.3572 30.8503 7.6175C36.2115 4.87778 37.9239 18.9968 46.8836 20.7528C55.8432 22.5088 41.2807 12.4184 40.9156 3.73223C40.5505 -4.95396 47.3506 4.30425 53.7472 12.105C60.1438 19.9058 64.1392 24.1347 59.0567 13.1456C53.9741 2.15652 63.3624 -5.30728 64.3978 5.23322Z" fill="#E0FC52"/>
</svg>
