<svg width="167" height="79" viewBox="0 0 167 79" fill="none" xmlns="http://www.w3.org/2000/svg">
<path d="M22.9752 15.2332C22.1468 23.6656 26.5522 33.4844 6.97373 37.3215C0.895661 48.5057 12.0031 40.1263 23.2856 37.915C34.5681 35.7038 17.2526 54.6038 27.3829 58.8209C37.5132 63.038 34.5599 55.0022 31.9584 41.7286C29.357 28.4551 36.9427 39.0288 45.4205 41.8469C53.8983 44.6649 36.9996 58.6591 46.668 62.2775C56.3364 65.896 48.1735 33.0373 52.5058 44.5933C56.8382 56.1492 58.5292 64.777 63.2466 62.4741C67.964 60.1712 47.8417 33.1023 62.7662 49.474C77.6908 65.8458 86.0984 52.4821 87.1072 48.8385C88.1161 45.1949 71.4007 46.0589 64.7839 42.1869C58.1671 38.3149 77.7522 32.7535 73.7251 28.0294C69.698 23.3053 69.4696 30.931 63.4832 35.5501C57.4967 40.1692 44.4966 40.6496 52.5458 34.2479C60.5949 27.8461 61.8839 20.3572 56.5227 17.6175C51.1616 14.8778 49.4491 28.9968 40.4895 30.7528C31.5298 32.5088 46.0923 22.4184 46.4574 13.7322C46.8225 5.04604 40.0224 14.3043 33.6258 22.105C27.2292 29.9058 23.2338 34.1347 28.3164 23.1456C33.3989 12.1565 24.0107 4.69272 22.9752 15.2332Z" fill="#E0FC52"/>
<path d="M100.751 62.9753C99.9222 54.5429 104.328 44.7241 84.7491 40.887C78.6711 29.7028 89.7784 38.0822 101.061 40.2935C112.343 42.5047 95.028 23.6047 105.158 19.3876C115.289 15.1705 112.335 23.2063 109.734 36.4799C107.132 49.7534 114.718 39.1797 123.196 36.3616C131.674 33.5436 114.775 19.5494 124.443 15.931C134.112 12.3125 125.949 45.1712 130.281 33.6152C134.614 22.0593 136.305 13.4314 141.022 15.7344C145.739 18.0373 125.617 45.1062 140.542 28.7345C155.466 12.3627 163.874 25.7264 164.883 29.37C165.891 33.0136 149.176 32.1496 142.559 36.0216C135.942 39.8936 155.528 45.455 151.5 50.1791C147.473 54.9031 147.245 47.2775 141.259 42.6584C135.272 38.0393 122.272 37.5589 130.321 43.9606C138.37 50.3624 139.659 57.8513 134.298 60.591C128.937 63.3307 127.225 49.2117 118.265 47.4557C109.305 45.6997 123.868 55.7901 124.233 64.4763C124.598 73.1625 117.798 63.9042 111.401 56.1035C105.005 48.3027 101.009 44.0738 106.092 55.0629C111.174 66.052 101.786 73.5158 100.751 62.9753Z" fill="#E0FC52"/>
</svg>
