<svg width="46" height="47" viewBox="0 0 46 47" fill="none" xmlns="http://www.w3.org/2000/svg">
<path fill-rule="evenodd" clip-rule="evenodd" d="M41.1254 17.2212C43.7261 16.2058 47.8454 13.7682 43.5163 12.1407C40.9917 11.1916 38.5952 11.6611 36.8109 12.0107C34.7707 12.4104 33.5309 12.6533 33.8151 10.4393C34.3478 6.28899 32.1397 -6.7078 24.3933 7.00626C23.1996 4.2401 20.2348 -0.169147 17.9251 4.32315C16.4467 7.19843 16.613 8.20721 16.7258 8.89179C16.8333 9.54418 16.8923 9.90214 15.4331 11.3005C14.0985 12.5795 12.9886 11.6218 11.8338 10.6254C10.4012 9.38933 8.89964 8.09374 6.81457 10.9353C4.23626 14.449 5.54799 16.284 6.48479 17.5946C6.91625 18.1982 7.26817 18.6905 7.12389 19.1843C6.97459 19.6953 6.02032 20.2364 4.88544 20.88C2.54204 22.2089 -0.571398 23.9744 1.04232 26.8126C2.43266 29.2578 4.42232 29.1293 6.16596 29.0166C7.4262 28.9351 8.55793 28.862 9.24198 29.775C9.81718 30.5426 9.10747 31.3157 8.22296 32.2792C6.60021 34.0468 4.38911 36.4553 8.44477 40.6472C12.1186 44.4444 13.1201 41.6574 13.9668 39.3014C14.5643 37.6389 15.0846 36.191 16.4124 37.4228C17.7807 38.6921 17.3006 40.7189 16.8696 42.5385C16.2897 44.987 15.7985 47.0604 20.0194 46.4085C24.2517 45.7548 24.4018 44.0584 24.565 42.2138C24.6856 40.8517 24.8133 39.4088 26.5972 38.2454C28.3804 37.0824 29.2055 38.4996 30.114 40.0602C31.3451 42.175 32.7295 44.553 36.8591 41.1304C41.1614 37.5648 38.9874 36.0971 36.9718 34.7365C35.625 33.8273 34.349 32.9658 35.1234 31.5581C35.96 30.0373 37.2359 29.9179 38.5915 29.7911C40.3685 29.625 42.2823 29.446 43.5229 26.0802C44.848 22.4849 42.9576 22.5696 41.2059 22.6481C40.0667 22.6991 38.9863 22.7475 38.8871 21.7795C38.6849 19.8067 38.5246 18.2365 41.1254 17.2212ZM18.1139 19.6052C17.1146 21.5459 18.2763 26.5488 21.6089 26.233C23.9914 26.0072 24.9302 23.8742 25.7168 22.0868C26.3056 20.7491 26.8091 19.605 27.7689 19.5992C30.0112 19.5855 23.0115 13.745 18.1139 19.6052Z" fill="#E0FC52"/>
</svg>
