<svg width="83" height="53" viewBox="0 0 83 53" fill="none" xmlns="http://www.w3.org/2000/svg">
<path d="M65.0053 47.6227C65.8336 39.1903 61.4282 29.3716 81.0067 25.5344C87.0848 14.3502 75.9774 22.7297 64.6949 24.9409C53.4124 27.1522 70.7279 8.25218 60.5976 4.03507C50.4673 -0.182037 53.4205 7.85379 56.022 21.1273C58.6235 34.4009 51.0378 23.8271 42.56 21.0091C34.0822 18.191 50.9809 4.19691 41.3125 0.578438C31.6441 -3.04003 39.807 29.8187 35.4746 18.2627C31.1423 6.70672 29.4513 -1.92109 24.7339 0.381817C20.0164 2.68473 40.1388 29.7536 25.2142 13.3819C10.2897 -2.98982 1.88205 10.3739 0.873221 14.0175C-0.135606 17.661 16.5798 16.7971 23.1966 20.6691C29.8134 24.541 10.2282 30.1024 14.2554 34.8265C18.2825 39.5506 18.5109 31.925 24.4973 27.3058C30.4837 22.6867 43.4838 22.2064 35.4347 28.6081C27.3856 35.0098 26.0966 42.4987 31.4578 45.2385C36.8189 47.9782 38.5314 33.8591 47.491 32.1031C56.4506 30.3471 41.8882 40.4375 41.523 49.1237C41.1579 57.8099 47.9581 48.5517 54.3547 40.7509C60.7513 32.9501 64.7466 28.7212 59.6641 39.7103C54.5815 50.6994 63.9698 58.1632 65.0053 47.6227Z" fill="#E0FC52"/>
</svg>
