<svg width="422" height="328" viewBox="0 0 422 328" fill="none" xmlns="http://www.w3.org/2000/svg">
<rect x="122" y="53.2866" width="282" height="222" rx="30" fill="#D3D3D3"/>
<rect x="122" y="57.8608" width="282" height="222" rx="30" fill="white"/>
<path d="M0 42H391.333C407.902 42 421.333 55.4315 421.333 72V298C421.333 314.569 407.902 328 391.333 328H30C13.4315 328 0 314.569 0 298V42Z" fill="#2969F6"/>
<path d="M46.8945 276V256.703H50.0938V276H46.8945ZM55.375 276V260.766H58.4219V266.859H65.8359V260.766H68.8828V276H65.8359V269.602H58.4219V276H55.375ZM71.7773 263.457V260.766H85.793V263.457H80.3086V276H77.2617V263.457H71.7773ZM86.8086 268.383C86.8086 266.047 87.5026 264.151 88.8906 262.695C90.2786 261.24 92.0898 260.512 94.3242 260.512C96.5586 260.512 98.3444 261.227 99.6816 262.657C101.019 264.088 101.688 265.996 101.688 268.383C101.688 268.789 101.654 269.111 101.586 269.348H89.8555C90.0332 270.685 90.5326 271.739 91.3535 272.509C92.1745 273.279 93.2493 273.664 94.5781 273.664C96.5671 273.664 98.0736 273.004 99.0977 271.684L101.18 273.512C100.486 274.341 99.5885 275.006 98.4883 275.505C97.388 276.004 96.0846 276.254 94.5781 276.254C93.3509 276.254 92.2422 276.059 91.252 275.67C90.2617 275.272 89.445 274.722 88.8018 274.02C88.1585 273.309 87.6634 272.475 87.3164 271.519C86.9779 270.562 86.8086 269.517 86.8086 268.383ZM89.9062 267.012H98.5898C98.3867 265.768 97.9085 264.799 97.1553 264.104C96.4105 263.402 95.4668 263.051 94.3242 263.051C93.1478 263.051 92.1745 263.402 91.4043 264.104C90.6341 264.807 90.1348 265.776 89.9062 267.012ZM105.242 281.078V260.766H107.883L108.086 263.152C108.704 262.306 109.457 261.654 110.346 261.197C111.243 260.74 112.233 260.512 113.316 260.512C115.322 260.512 116.93 261.227 118.141 262.657C119.359 264.088 119.969 265.996 119.969 268.383C119.969 270.71 119.351 272.606 118.115 274.07C116.88 275.526 115.28 276.254 113.316 276.254C112.275 276.254 111.323 276.059 110.46 275.67C109.597 275.272 108.873 274.705 108.289 273.969V281.078H105.242ZM109.279 264.549C108.484 265.505 108.086 266.783 108.086 268.383C108.086 269.982 108.484 271.265 109.279 272.229C110.083 273.186 111.158 273.664 112.504 273.664C113.841 273.664 114.903 273.186 115.69 272.229C116.478 271.273 116.871 269.991 116.871 268.383C116.871 266.775 116.478 265.493 115.69 264.536C114.903 263.58 113.841 263.102 112.504 263.102C111.158 263.102 110.083 263.584 109.279 264.549ZM121.949 271.785C121.949 271.26 122.021 270.782 122.165 270.351C122.309 269.91 122.495 269.538 122.724 269.233C122.952 268.92 123.248 268.637 123.612 268.383C123.976 268.12 124.332 267.909 124.679 267.748C125.026 267.587 125.44 267.439 125.923 267.304C126.405 267.16 126.833 267.054 127.205 266.986C127.577 266.91 128.009 266.834 128.5 266.758C129.033 266.69 129.448 266.631 129.744 266.58C130.04 266.529 130.349 266.462 130.671 266.377C130.993 266.292 131.225 266.199 131.369 266.098C131.521 265.988 131.648 265.848 131.75 265.679C131.852 265.509 131.902 265.311 131.902 265.082C131.902 264.473 131.61 263.982 131.026 263.609C130.442 263.237 129.668 263.051 128.703 263.051C127.848 263.051 127.027 263.229 126.24 263.584C125.453 263.939 124.751 264.439 124.133 265.082L122.254 263.102C124.082 261.375 126.283 260.512 128.855 260.512C130.684 260.512 132.122 260.956 133.172 261.845C134.221 262.733 134.746 263.965 134.746 265.539V272.395C134.746 273.038 135.068 273.359 135.711 273.359H136.27V276C136.066 276.068 135.711 276.102 135.203 276.102C134.255 276.102 133.553 275.915 133.096 275.543C132.639 275.171 132.359 274.544 132.258 273.664C131.725 274.46 130.98 275.09 130.023 275.556C129.067 276.021 128.035 276.254 126.926 276.254C125.436 276.254 124.234 275.843 123.32 275.022C122.406 274.193 121.949 273.114 121.949 271.785ZM124.945 271.582C124.945 272.285 125.161 272.826 125.593 273.207C126.024 273.579 126.638 273.766 127.434 273.766C128.602 273.766 129.621 273.414 130.493 272.712C131.365 272.009 131.801 271.176 131.801 270.211V268.23C131.623 268.34 131.378 268.442 131.064 268.535C130.751 268.628 130.459 268.7 130.188 268.751C129.926 268.802 129.482 268.882 128.855 268.992C128.568 269.035 128.352 269.068 128.208 269.094C128.064 269.119 127.857 269.161 127.586 269.221C127.324 269.271 127.12 269.318 126.977 269.36C126.833 269.403 126.651 269.466 126.431 269.551C126.219 269.627 126.054 269.707 125.936 269.792C125.817 269.877 125.682 269.982 125.529 270.109C125.385 270.228 125.275 270.359 125.199 270.503C125.132 270.638 125.072 270.799 125.021 270.985C124.971 271.172 124.945 271.37 124.945 271.582ZM139.672 276V260.766H142.719V267.57L149.574 260.766H153.434L147.086 266.859L153.738 276H150.031L144.902 268.941L142.719 271.023V276H139.672ZM154.297 263.457V260.766H168.312V263.457H162.828V276H159.781V263.457H154.297ZM171.207 276V260.766H174.203V271.734L181.617 260.766H184.766V276H181.77V264.93L174.355 276H171.207ZM189.539 276V260.766H196.344C198.07 260.766 199.408 261.091 200.355 261.743C201.303 262.395 201.777 263.389 201.777 264.727C201.777 265.548 201.587 266.25 201.206 266.834C200.834 267.418 200.296 267.867 199.594 268.18C201.32 268.806 202.184 270.025 202.184 271.836C202.184 273.19 201.722 274.223 200.8 274.934C199.877 275.645 198.578 276 196.902 276H189.539ZM192.484 273.562H196.598C197.41 273.562 198.036 273.381 198.477 273.017C198.917 272.653 199.137 272.141 199.137 271.48C199.137 270.82 198.896 270.3 198.413 269.919C197.931 269.538 197.258 269.348 196.395 269.348H192.484V273.562ZM192.484 267.062H196.344C197.207 267.062 197.829 266.91 198.21 266.605C198.591 266.301 198.781 265.793 198.781 265.082C198.781 264.481 198.578 264.02 198.172 263.698C197.774 263.368 197.215 263.203 196.496 263.203H192.484V267.062ZM205.941 276V260.766H208.988V266.859H216.402V260.766H219.449V276H216.402V269.602H208.988V276H205.941ZM222.852 271.785C222.852 271.26 222.924 270.782 223.067 270.351C223.211 269.91 223.397 269.538 223.626 269.233C223.854 268.92 224.151 268.637 224.515 268.383C224.879 268.12 225.234 267.909 225.581 267.748C225.928 267.587 226.343 267.439 226.825 267.304C227.308 267.16 227.735 267.054 228.107 266.986C228.48 266.91 228.911 266.834 229.402 266.758C229.936 266.69 230.35 266.631 230.646 266.58C230.943 266.529 231.252 266.462 231.573 266.377C231.895 266.292 232.128 266.199 232.271 266.098C232.424 265.988 232.551 265.848 232.652 265.679C232.754 265.509 232.805 265.311 232.805 265.082C232.805 264.473 232.513 263.982 231.929 263.609C231.345 263.237 230.57 263.051 229.605 263.051C228.751 263.051 227.93 263.229 227.143 263.584C226.355 263.939 225.653 264.439 225.035 265.082L223.156 263.102C224.984 261.375 227.185 260.512 229.758 260.512C231.586 260.512 233.025 260.956 234.074 261.845C235.124 262.733 235.648 263.965 235.648 265.539V272.395C235.648 273.038 235.97 273.359 236.613 273.359H237.172V276C236.969 276.068 236.613 276.102 236.105 276.102C235.158 276.102 234.455 275.915 233.998 275.543C233.541 275.171 233.262 274.544 233.16 273.664C232.627 274.46 231.882 275.09 230.926 275.556C229.969 276.021 228.937 276.254 227.828 276.254C226.339 276.254 225.137 275.843 224.223 275.022C223.309 274.193 222.852 273.114 222.852 271.785ZM225.848 271.582C225.848 272.285 226.063 272.826 226.495 273.207C226.927 273.579 227.54 273.766 228.336 273.766C229.504 273.766 230.524 273.414 231.396 272.712C232.267 272.009 232.703 271.176 232.703 270.211V268.23C232.525 268.34 232.28 268.442 231.967 268.535C231.654 268.628 231.362 268.7 231.091 268.751C230.828 268.802 230.384 268.882 229.758 268.992C229.47 269.035 229.254 269.068 229.11 269.094C228.966 269.119 228.759 269.161 228.488 269.221C228.226 269.271 228.023 269.318 227.879 269.36C227.735 269.403 227.553 269.466 227.333 269.551C227.121 269.627 226.956 269.707 226.838 269.792C226.719 269.877 226.584 269.982 226.432 270.109C226.288 270.228 226.178 270.359 226.102 270.503C226.034 270.638 225.975 270.799 225.924 270.985C225.873 271.172 225.848 271.37 225.848 271.582ZM248.699 276V260.766H251.746V267.57L258.602 260.766H262.461L256.113 266.859L262.766 276H259.059L253.93 268.941L251.746 271.023V276H248.699ZM263.629 271.785C263.629 271.26 263.701 270.782 263.845 270.351C263.989 269.91 264.175 269.538 264.403 269.233C264.632 268.92 264.928 268.637 265.292 268.383C265.656 268.12 266.011 267.909 266.358 267.748C266.705 267.587 267.12 267.439 267.603 267.304C268.085 267.16 268.512 267.054 268.885 266.986C269.257 266.91 269.689 266.834 270.18 266.758C270.713 266.69 271.128 266.631 271.424 266.58C271.72 266.529 272.029 266.462 272.351 266.377C272.672 266.292 272.905 266.199 273.049 266.098C273.201 265.988 273.328 265.848 273.43 265.679C273.531 265.509 273.582 265.311 273.582 265.082C273.582 264.473 273.29 263.982 272.706 263.609C272.122 263.237 271.348 263.051 270.383 263.051C269.528 263.051 268.707 263.229 267.92 263.584C267.133 263.939 266.43 264.439 265.812 265.082L263.934 263.102C265.762 261.375 267.962 260.512 270.535 260.512C272.363 260.512 273.802 260.956 274.852 261.845C275.901 262.733 276.426 263.965 276.426 265.539V272.395C276.426 273.038 276.747 273.359 277.391 273.359H277.949V276C277.746 276.068 277.391 276.102 276.883 276.102C275.935 276.102 275.232 275.915 274.775 275.543C274.318 275.171 274.039 274.544 273.938 273.664C273.404 274.46 272.66 275.09 271.703 275.556C270.747 276.021 269.714 276.254 268.605 276.254C267.116 276.254 265.914 275.843 265 275.022C264.086 274.193 263.629 273.114 263.629 271.785ZM266.625 271.582C266.625 272.285 266.841 272.826 267.272 273.207C267.704 273.579 268.318 273.766 269.113 273.766C270.281 273.766 271.301 273.414 272.173 272.712C273.045 272.009 273.48 271.176 273.48 270.211V268.23C273.303 268.34 273.057 268.442 272.744 268.535C272.431 268.628 272.139 268.7 271.868 268.751C271.606 268.802 271.161 268.882 270.535 268.992C270.247 269.035 270.032 269.068 269.888 269.094C269.744 269.119 269.536 269.161 269.266 269.221C269.003 269.271 268.8 269.318 268.656 269.36C268.512 269.403 268.33 269.466 268.11 269.551C267.899 269.627 267.734 269.707 267.615 269.792C267.497 269.877 267.361 269.982 267.209 270.109C267.065 270.228 266.955 270.359 266.879 270.503C266.811 270.638 266.752 270.799 266.701 270.985C266.65 271.172 266.625 271.37 266.625 271.582ZM281.352 281.078V260.766H283.992L284.195 263.152C284.813 262.306 285.566 261.654 286.455 261.197C287.352 260.74 288.342 260.512 289.426 260.512C291.432 260.512 293.04 261.227 294.25 262.657C295.469 264.088 296.078 265.996 296.078 268.383C296.078 270.71 295.46 272.606 294.225 274.07C292.989 275.526 291.389 276.254 289.426 276.254C288.385 276.254 287.433 276.059 286.569 275.67C285.706 275.272 284.982 274.705 284.398 273.969V281.078H281.352ZM285.389 264.549C284.593 265.505 284.195 266.783 284.195 268.383C284.195 269.982 284.593 271.265 285.389 272.229C286.193 273.186 287.268 273.664 288.613 273.664C289.951 273.664 291.013 273.186 291.8 272.229C292.587 271.273 292.98 269.991 292.98 268.383C292.98 266.775 292.587 265.493 291.8 264.536C291.013 263.58 289.951 263.102 288.613 263.102C287.268 263.102 286.193 263.584 285.389 264.549ZM297.094 263.457V260.766H311.109V263.457H305.625V276H302.578V263.457H297.094ZM312.227 271.785C312.227 271.26 312.299 270.782 312.442 270.351C312.586 269.91 312.772 269.538 313.001 269.233C313.229 268.92 313.526 268.637 313.89 268.383C314.254 268.12 314.609 267.909 314.956 267.748C315.303 267.587 315.718 267.439 316.2 267.304C316.683 267.16 317.11 267.054 317.482 266.986C317.855 266.91 318.286 266.834 318.777 266.758C319.311 266.69 319.725 266.631 320.021 266.58C320.318 266.529 320.627 266.462 320.948 266.377C321.27 266.292 321.503 266.199 321.646 266.098C321.799 265.988 321.926 265.848 322.027 265.679C322.129 265.509 322.18 265.311 322.18 265.082C322.18 264.473 321.888 263.982 321.304 263.609C320.72 263.237 319.945 263.051 318.98 263.051C318.126 263.051 317.305 263.229 316.518 263.584C315.73 263.939 315.028 264.439 314.41 265.082L312.531 263.102C314.359 261.375 316.56 260.512 319.133 260.512C320.961 260.512 322.4 260.956 323.449 261.845C324.499 262.733 325.023 263.965 325.023 265.539V272.395C325.023 273.038 325.345 273.359 325.988 273.359H326.547V276C326.344 276.068 325.988 276.102 325.48 276.102C324.533 276.102 323.83 275.915 323.373 275.543C322.916 275.171 322.637 274.544 322.535 273.664C322.002 274.46 321.257 275.09 320.301 275.556C319.344 276.021 318.312 276.254 317.203 276.254C315.714 276.254 314.512 275.843 313.598 275.022C312.684 274.193 312.227 273.114 312.227 271.785ZM315.223 271.582C315.223 272.285 315.438 272.826 315.87 273.207C316.302 273.579 316.915 273.766 317.711 273.766C318.879 273.766 319.899 273.414 320.771 272.712C321.642 272.009 322.078 271.176 322.078 270.211V268.23C321.9 268.34 321.655 268.442 321.342 268.535C321.029 268.628 320.737 268.7 320.466 268.751C320.203 268.802 319.759 268.882 319.133 268.992C318.845 269.035 318.629 269.068 318.485 269.094C318.341 269.119 318.134 269.161 317.863 269.221C317.601 269.271 317.398 269.318 317.254 269.36C317.11 269.403 316.928 269.466 316.708 269.551C316.496 269.627 316.331 269.707 316.213 269.792C316.094 269.877 315.959 269.982 315.807 270.109C315.663 270.228 315.553 270.359 315.477 270.503C315.409 270.638 315.35 270.799 315.299 270.985C315.248 271.172 315.223 271.37 315.223 271.582Z" fill="white"/>
<path fill-rule="evenodd" clip-rule="evenodd" d="M30 0C13.4315 0 0 13.4315 0 30V40C0 56.5685 13.4315 70 30 70H155.996C172.219 70 183.663 57.9921 185.722 44.2677C188.885 47.0439 195.273 47.2877 198.311 44.1667C199.967 42.4655 204.802 42.9141 208.578 43.2645C209.914 43.3884 211.117 43.5 212 43.5L227 42C215.123 42 190.26 35.131 181.132 23.5842C180.32 22.3618 179.402 21.1706 178.375 20.0195L169.446 10.0195C163.754 3.64475 155.614 0 147.068 0H30Z" fill="#2969F6"/>
<path d="M44.8633 28.3906V26.0039H45.6758C46.5391 26.0039 47.2373 25.9574 47.7705 25.8643C48.3037 25.7627 48.7438 25.5807 49.0908 25.3184C49.4463 25.056 49.7002 24.7217 49.8525 24.3154C50.0133 23.9092 50.1276 23.3717 50.1953 22.7031H52.4297V42H49.3828V28.3906H44.8633ZM54.8672 43.0156L66.1406 21.6875H68.9844L57.7109 43.0156H54.8672ZM69.4922 32.6055C69.4922 31.5052 69.5895 30.4642 69.7842 29.4824C69.9788 28.4922 70.2878 27.5654 70.7109 26.7021C71.1341 25.8389 71.6546 25.0941 72.2725 24.4678C72.8903 23.8415 73.6478 23.3506 74.5449 22.9951C75.4421 22.6312 76.4323 22.4492 77.5156 22.4492C78.7513 22.4492 79.8981 22.6777 80.9561 23.1348C82.0225 23.5833 82.89 24.252 83.5586 25.1406L81.5273 27.0195C81.0788 26.3678 80.5117 25.877 79.8262 25.5469C79.1491 25.2083 78.3958 25.0391 77.5664 25.0391C76.6016 25.0391 75.7637 25.2464 75.0527 25.6611C74.3418 26.0674 73.7874 26.626 73.3896 27.3369C73.0003 28.0394 72.7126 28.8053 72.5264 29.6348C72.3486 30.4642 72.2682 31.3529 72.2852 32.3008C72.8438 31.4544 73.5801 30.8027 74.4941 30.3457C75.4167 29.8887 76.4577 29.6602 77.6172 29.6602C79.513 29.6602 81.0703 30.2103 82.2891 31.3105C83.5078 32.4108 84.1172 33.8919 84.1172 35.7539C84.1172 37.0065 83.7956 38.1364 83.1523 39.1436C82.5176 40.1423 81.667 40.9124 80.6006 41.4541C79.5426 41.9873 78.3789 42.2539 77.1094 42.2539C76.0684 42.2539 75.1204 42.0846 74.2656 41.7461C73.4193 41.3991 72.7041 40.9294 72.1201 40.3369C71.5361 39.7445 71.041 39.0378 70.6348 38.2168C70.237 37.3958 69.945 36.5199 69.7588 35.5889C69.5811 34.6494 69.4922 33.6549 69.4922 32.6055ZM73.0977 35.8047C73.0977 36.9896 73.4658 37.9375 74.2021 38.6484C74.9385 39.3594 75.9076 39.7148 77.1094 39.7148C78.252 39.7148 79.2126 39.3594 79.9912 38.6484C80.7783 37.9375 81.1719 37.0234 81.1719 35.9062C81.1719 34.7298 80.7995 33.7946 80.0547 33.1006C79.3184 32.3981 78.3704 32.0469 77.2109 32.0469C76.043 32.0469 75.0654 32.3939 74.2783 33.0879C73.4912 33.7819 73.0977 34.6875 73.0977 35.8047Z" fill="white"/>
</svg>
