<svg class="hidden group-hover:block" width="218" height="76" viewBox="0 0 218 76" fill="none" xmlns="http://www.w3.org/2000/svg">
    <g filter="url(#filter0_b_20_2375)">
        <rect x="-0.000732422" width="218" height="76" rx="38" fill="#151515" fill-opacity="0.5"/>
        <rect x="0.499268" y="0.5" width="217" height="75" rx="37.5" stroke="url(#paint0_linear_20_2375)"/>
        <path d="M67.9993 38C67.9993 54.5685 54.5678 68 37.9993 68C21.4307 68 7.99927 54.5685 7.99927 38C7.99927 21.4315 21.4307 8 37.9993 8C54.5678 8 67.9993 21.4315 67.9993 38ZM19.2793 38C19.2793 48.3388 27.6605 56.72 37.9993 56.72C48.338 56.72 56.7193 48.3388 56.7193 38C56.7193 27.6612 48.338 19.28 37.9993 19.28C27.6605 19.28 19.2793 27.6612 19.2793 38Z" fill="#1D1D1D"/>
        <path d="M37.9993 13.64C37.9993 10.5251 40.5462 7.94641 43.6062 8.5286C47.6178 9.29184 51.4516 10.87 54.8618 13.1876C59.8356 16.5678 63.6788 21.3648 65.8926 26.9563C68.1064 32.5477 68.5886 38.6754 67.2768 44.5443C65.9649 50.4132 62.9195 55.7524 58.5357 59.8691C54.1519 63.9857 48.632 66.6899 42.6923 67.6306C36.7526 68.5714 30.6673 67.7053 25.2259 65.1448C19.7845 62.5843 15.2382 58.4475 12.177 53.2712C10.0782 49.7223 8.7438 45.797 8.23396 41.7453C7.84506 38.6548 10.5786 36.2748 13.6873 36.4704C16.7961 36.666 19.0732 39.3949 19.809 42.4217C20.2431 44.2075 20.9402 45.9297 21.8862 47.5293C23.7964 50.7592 26.6333 53.3406 30.0287 54.9384C33.4241 56.5361 37.2214 57.0766 40.9277 56.4895C44.6341 55.9025 48.0785 54.2151 50.814 51.6463C53.5495 49.0775 55.4498 45.7458 56.2684 42.0836C57.087 38.4214 56.7861 34.5978 55.4047 31.1087C54.0233 27.6197 51.6251 24.6263 48.5215 22.5171C46.9844 21.4725 45.3095 20.6686 43.5544 20.1232C40.5798 19.1989 37.9993 16.7549 37.9993 13.64Z" fill="#E0FC52"/>
        <path d="M24.0725 34.291V33.3516H31.0042V34.0625C29.8573 35.1077 28.9475 36.4217 28.2747 38.0044C27.606 39.5828 27.2717 41.248 27.2717 43H26.2307C26.2307 42.1452 26.3259 41.2819 26.5164 40.4102C26.711 39.5384 26.9713 38.7301 27.2971 37.9854C27.6272 37.2363 27.9996 36.5465 28.4143 35.916C28.829 35.2855 29.2691 34.7438 29.7346 34.291H24.0725ZM31.2073 38.2266C31.2073 37.5199 31.2898 36.866 31.4548 36.2651C31.6241 35.6642 31.8653 35.1374 32.1785 34.6846C32.4958 34.2275 32.9021 33.87 33.3972 33.6118C33.8923 33.3537 34.4488 33.2246 35.0667 33.2246C35.6591 33.2246 36.2071 33.341 36.7107 33.5737C37.2185 33.8022 37.6353 34.1344 37.9612 34.5703L37.2756 35.2305C36.7297 34.4857 35.9934 34.1133 35.0667 34.1133C34.5842 34.1133 34.1526 34.2212 33.7717 34.437C33.3951 34.6486 33.0862 34.9427 32.845 35.3193C32.608 35.6917 32.4281 36.1213 32.3054 36.6079C32.1827 37.0903 32.1213 37.613 32.1213 38.1758V38.582C32.4006 38.0361 32.79 37.6172 33.2893 37.3252C33.7929 37.029 34.3684 36.8809 35.0159 36.8809C35.9426 36.8809 36.7107 37.1644 37.3201 37.7314C37.9337 38.2985 38.2405 39.0391 38.2405 39.9531C38.2405 40.5498 38.0903 41.0915 37.7898 41.5781C37.4893 42.0648 37.081 42.4456 36.5647 42.7207C36.0527 42.9915 35.4856 43.127 34.8635 43.127C34.2753 43.127 33.7463 43.0021 33.2766 42.7524C32.8111 42.5028 32.4281 42.1579 32.1277 41.7178C31.8272 41.2734 31.5987 40.755 31.4421 40.1626C31.2856 39.5701 31.2073 38.9248 31.2073 38.2266ZM32.5276 39.9785C32.5276 40.626 32.7498 41.1655 33.1941 41.5972C33.6427 42.0246 34.1991 42.2383 34.8635 42.2383C35.5321 42.2383 36.0929 42.0288 36.5457 41.6099C36.9985 41.1909 37.2249 40.6556 37.2249 40.0039C37.2249 39.3353 37.0048 38.7915 36.5647 38.3726C36.1246 37.9536 35.566 37.7441 34.8889 37.7441C34.2203 37.7441 33.6596 37.9536 33.2068 38.3726C32.754 38.7915 32.5276 39.3268 32.5276 39.9785ZM40.0051 38.271C39.5566 37.742 39.3323 37.0332 39.3323 36.1445C39.3323 35.2559 39.5566 34.547 40.0051 34.0181C40.4537 33.4891 41.0588 33.2246 41.8206 33.2246C42.5823 33.2246 43.1874 33.4891 43.636 34.0181C44.0846 34.547 44.3088 35.2559 44.3088 36.1445C44.3088 37.0332 44.0846 37.742 43.636 38.271C43.1874 38.8 42.5823 39.0645 41.8206 39.0645C41.0588 39.0645 40.4537 38.8 40.0051 38.271ZM40.678 34.6147C40.3902 34.9998 40.2463 35.5098 40.2463 36.1445C40.2463 36.7793 40.3902 37.2892 40.678 37.6743C40.97 38.0594 41.3508 38.252 41.8206 38.252C42.2903 38.252 42.669 38.0594 42.9568 37.6743C43.2488 37.2892 43.3948 36.7793 43.3948 36.1445C43.3948 35.5098 43.2488 34.9998 42.9568 34.6147C42.669 34.2297 42.2903 34.0371 41.8206 34.0371C41.3508 34.0371 40.97 34.2297 40.678 34.6147ZM41.7444 43L47.8635 33.3516H48.7776L42.6584 43H41.7444ZM46.8606 42.3335C46.412 41.8045 46.1877 41.0957 46.1877 40.207C46.1877 39.3184 46.412 38.6095 46.8606 38.0806C47.3092 37.5516 47.9143 37.2871 48.676 37.2871C49.4377 37.2871 50.0429 37.5516 50.4915 38.0806C50.94 38.6095 51.1643 39.3184 51.1643 40.207C51.1643 41.0957 50.94 41.8045 50.4915 42.3335C50.0429 42.8625 49.4377 43.127 48.676 43.127C47.9143 43.127 47.3092 42.8625 46.8606 42.3335ZM47.5461 38.6772C47.2668 39.0623 47.1272 39.5723 47.1272 40.207C47.1272 40.8418 47.2668 41.3517 47.5461 41.7368C47.8297 42.1219 48.2063 42.3145 48.676 42.3145C49.1458 42.3145 49.5245 42.1219 49.8123 41.7368C50.1042 41.3517 50.2502 40.8418 50.2502 40.207C50.2502 39.5723 50.1042 39.0623 49.8123 38.6772C49.5245 38.2922 49.1458 38.0996 48.676 38.0996C48.2063 38.0996 47.8297 38.2922 47.5461 38.6772Z" fill="white"/>
        <path d="M73.9993 8V68" stroke="#D3D3D3" stroke-linecap="round" stroke-linejoin="round"/>
        <path d="M81.5989 42.5V32.8516H82.6399V37.9043L87.7688 32.8516H89.0891L84.9504 36.8887L89.4192 42.5H88.0735L84.2141 37.5996L82.6399 39.123V42.5H81.5989ZM91.0188 42.5V34.8828H92.009V41.1035L96.4016 34.8828H97.468V42.5H96.4778V36.2793L92.0852 42.5H91.0188ZM99.0422 33.6387V32.4707H100.21V33.6387H99.0422ZM100.286 42.5V34.8828H101.302V42.5H100.286ZM101.327 33.6387V32.4707H102.495V33.6387H101.327ZM104.095 42.5V34.8828H107.294C108.107 34.8828 108.741 35.0563 109.198 35.4033C109.656 35.7503 109.884 36.2539 109.884 36.9141C109.884 37.2907 109.789 37.6208 109.598 37.9043C109.408 38.1878 109.139 38.3994 108.792 38.5391C109.672 38.8395 110.113 39.4658 110.113 40.418C110.113 41.0739 109.88 41.5859 109.414 41.9541C108.953 42.318 108.314 42.5 107.497 42.5H104.095ZM105.085 41.6367H107.497C108.005 41.6367 108.399 41.5225 108.678 41.2939C108.957 41.0654 109.097 40.748 109.097 40.3418C109.097 39.9355 108.955 39.6097 108.672 39.3643C108.392 39.1188 108.018 38.9961 107.548 38.9961H105.085V41.6367ZM105.085 38.1836H107.447C107.912 38.1836 108.265 38.0799 108.507 37.8726C108.748 37.6652 108.868 37.3626 108.868 36.9648C108.868 36.5882 108.739 36.292 108.481 36.0762C108.227 35.8561 107.882 35.7461 107.447 35.7461H105.085V38.1836ZM112.588 41.5288C111.903 40.7925 111.56 39.8467 111.56 38.6914C111.56 37.5361 111.903 36.5924 112.588 35.8604C113.278 35.124 114.162 34.7559 115.241 34.7559C116.058 34.7559 116.761 34.9611 117.349 35.3716C117.941 35.7778 118.339 36.3343 118.542 37.041L117.603 37.3711C117.421 36.8421 117.122 36.4232 116.708 36.1143C116.293 35.8011 115.804 35.6445 115.241 35.6445C114.454 35.6445 113.817 35.9281 113.331 36.4951C112.844 37.0579 112.601 37.79 112.601 38.6914C112.601 39.5928 112.844 40.327 113.331 40.894C113.817 41.4569 114.454 41.7383 115.241 41.7383C115.804 41.7383 116.295 41.5838 116.714 41.2749C117.137 40.966 117.434 40.5534 117.603 40.0371L118.542 40.3418C118.326 41.0527 117.924 41.6113 117.336 42.0176C116.752 42.4238 116.054 42.627 115.241 42.627C114.162 42.627 113.278 42.2609 112.588 41.5288ZM120.447 42.5V34.8828H121.462V37.9551H123.773C124.573 37.9551 125.212 38.1646 125.69 38.5835C126.172 39.0024 126.413 39.5547 126.413 40.2402C126.413 40.9173 126.172 41.4632 125.69 41.8779C125.207 42.2926 124.568 42.5 123.773 42.5H120.447ZM121.462 41.5859H123.747C124.255 41.5859 124.653 41.4674 124.941 41.2305C125.228 40.9893 125.372 40.6592 125.372 40.2402C125.372 39.8086 125.228 39.4722 124.941 39.231C124.653 38.9897 124.255 38.8691 123.747 38.8691H121.462V41.5859ZM128.318 42.5V34.8828H129.333V38.6406L133.345 34.8828H134.64L131.263 38.0059L134.818 42.5H133.548L130.527 38.6914L129.333 39.8086V42.5H128.318ZM135.275 40.4688C135.275 40.2699 135.296 40.0837 135.338 39.9102C135.38 39.7367 135.435 39.5843 135.503 39.4531C135.571 39.3219 135.662 39.1992 135.776 39.085C135.895 38.9665 136.009 38.867 136.119 38.7866C136.233 38.702 136.373 38.6237 136.538 38.5518C136.703 38.4756 136.851 38.4142 136.982 38.3677C137.118 38.3211 137.283 38.2746 137.477 38.228C137.672 38.1815 137.837 38.1455 137.972 38.1201C138.108 38.0947 138.275 38.0651 138.474 38.0312C139.181 37.8958 139.64 37.7837 139.851 37.6948C140.198 37.5467 140.382 37.3245 140.404 37.0283C140.404 37.0072 140.404 36.986 140.404 36.9648C140.404 36.5713 140.234 36.2539 139.896 36.0127C139.561 35.7673 139.121 35.6445 138.575 35.6445C138.093 35.6445 137.64 35.744 137.217 35.9429C136.798 36.1375 136.43 36.4189 136.113 36.7871L135.427 36.127C136.261 35.2129 137.319 34.7559 138.601 34.7559C139.468 34.7559 140.15 34.9738 140.645 35.4097C141.144 35.8455 141.394 36.4486 141.394 37.2188V41.0781C141.394 41.2686 141.434 41.4061 141.514 41.4907C141.595 41.5711 141.724 41.6113 141.902 41.6113H142.181V42.5C142.147 42.5339 142.029 42.5508 141.825 42.5508C141.368 42.5508 141.04 42.4535 140.842 42.2588C140.643 42.0599 140.531 41.7256 140.505 41.2559C140.234 41.6663 139.847 41.9985 139.344 42.2524C138.844 42.5021 138.3 42.627 137.712 42.627C136.976 42.627 136.385 42.4302 135.941 42.0366C135.497 41.6388 135.275 41.1162 135.275 40.4688ZM136.29 40.4434C136.29 40.8581 136.421 41.1776 136.684 41.4019C136.946 41.6261 137.314 41.7383 137.788 41.7383C138.516 41.7383 139.138 41.5267 139.655 41.1035C140.171 40.6761 140.429 40.1598 140.429 39.5547V38.2598C140.251 38.3994 140.021 38.5094 139.737 38.5898C139.454 38.6702 139.075 38.7464 138.601 38.8184C138.393 38.8564 138.228 38.8882 138.106 38.9136C137.987 38.9347 137.835 38.9707 137.649 39.0215C137.462 39.068 137.314 39.1167 137.204 39.1675C137.094 39.2183 136.974 39.286 136.843 39.3706C136.716 39.451 136.616 39.5399 136.544 39.6372C136.472 39.7345 136.411 39.853 136.36 39.9927C136.314 40.1281 136.29 40.2783 136.29 40.4434ZM147.64 37.6758C147.64 36.7236 147.83 35.8709 148.211 35.1177C148.596 34.3644 149.129 33.7783 149.811 33.3594C150.496 32.9362 151.271 32.7246 152.134 32.7246C153.014 32.7246 153.795 32.932 154.476 33.3467C155.158 33.7572 155.687 34.339 156.063 35.0923C156.44 35.8455 156.628 36.7067 156.628 37.6758C156.628 38.6279 156.436 39.4806 156.051 40.2339C155.67 40.9871 155.136 41.5754 154.451 41.9985C153.77 42.4175 152.997 42.627 152.134 42.627C151.254 42.627 150.473 42.4217 149.792 42.0112C149.11 41.5965 148.581 41.0125 148.205 40.2593C147.828 39.506 147.64 38.6449 147.64 37.6758ZM149.671 34.7749C149.045 35.5155 148.732 36.4824 148.732 37.6758C148.732 38.8691 149.045 39.8361 149.671 40.5767C150.297 41.3172 151.118 41.6875 152.134 41.6875C153.15 41.6875 153.971 41.3172 154.597 40.5767C155.223 39.8361 155.536 38.8691 155.536 37.6758C155.536 36.4824 155.223 35.5155 154.597 34.7749C153.971 34.0343 153.15 33.6641 152.134 33.6641C151.118 33.6641 150.297 34.0343 149.671 34.7749ZM158.355 38.3359C158.355 36.8083 158.621 35.6509 159.155 34.8638C159.692 34.0724 160.543 33.5625 161.706 33.334L163.509 32.9531C163.653 32.9277 163.763 32.8727 163.839 32.7881C163.915 32.7035 163.966 32.5807 163.991 32.4199L164.017 32.2422L164.982 32.4199L164.956 32.6738C164.931 32.9701 164.815 33.2261 164.607 33.4419C164.404 33.6535 164.123 33.8037 163.763 33.8926L161.782 34.2988C161.029 34.4512 160.449 34.7474 160.043 35.1875C159.637 35.6276 159.396 36.2201 159.32 36.9648C159.616 36.5163 160.007 36.1714 160.494 35.9302C160.985 35.689 161.55 35.5684 162.189 35.5684C163.107 35.5684 163.871 35.9006 164.48 36.5649C165.09 37.2293 165.401 38.0736 165.413 39.0977C165.426 40.1133 165.102 40.9554 164.442 41.624C163.782 42.2926 162.938 42.627 161.909 42.627C160.826 42.627 159.963 42.2419 159.32 41.4717C158.676 40.6973 158.355 39.652 158.355 38.3359ZM159.421 39.0215C159.421 39.8086 159.654 40.4539 160.119 40.9575C160.589 41.4611 161.186 41.7129 161.909 41.7129C162.646 41.7129 163.24 41.4801 163.693 41.0146C164.146 40.5449 164.372 39.9229 164.372 39.1484C164.372 38.3275 164.156 37.6779 163.725 37.1997C163.293 36.7215 162.713 36.4824 161.986 36.4824C161.211 36.4824 160.589 36.7131 160.119 37.1743C159.654 37.6313 159.421 38.2471 159.421 39.0215ZM166.429 42.5V41.5605H166.784C166.979 41.5605 167.131 41.5309 167.241 41.4717C167.351 41.4124 167.447 41.2897 167.527 41.1035C167.612 40.9131 167.669 40.6423 167.698 40.291C167.732 39.9355 167.749 39.4616 167.749 38.8691V34.8828H173.513V42.5H172.497V35.7969H168.74V39.0215C168.74 39.9229 168.676 40.6296 168.549 41.1416C168.426 41.6494 168.236 42.0112 167.978 42.2271C167.72 42.4429 167.364 42.5508 166.911 42.5508C166.725 42.5508 166.564 42.5339 166.429 42.5ZM175.417 40.4688C175.417 40.2699 175.438 40.0837 175.481 39.9102C175.523 39.7367 175.578 39.5843 175.646 39.4531C175.713 39.3219 175.804 39.1992 175.919 39.085C176.037 38.9665 176.151 38.867 176.261 38.7866C176.376 38.702 176.515 38.6237 176.68 38.5518C176.845 38.4756 176.994 38.4142 177.125 38.3677C177.26 38.3211 177.425 38.2746 177.62 38.228C177.815 38.1815 177.98 38.1455 178.115 38.1201C178.25 38.0947 178.418 38.0651 178.616 38.0312C179.323 37.8958 179.782 37.7837 179.994 37.6948C180.341 37.5467 180.525 37.3245 180.546 37.0283C180.546 37.0072 180.546 36.986 180.546 36.9648C180.546 36.5713 180.377 36.2539 180.038 36.0127C179.704 35.7673 179.264 35.6445 178.718 35.6445C178.236 35.6445 177.783 35.744 177.36 35.9429C176.941 36.1375 176.573 36.4189 176.255 36.7871L175.57 36.127C176.403 35.2129 177.461 34.7559 178.743 34.7559C179.611 34.7559 180.292 34.9738 180.787 35.4097C181.287 35.8455 181.536 36.4486 181.536 37.2188V41.0781C181.536 41.2686 181.577 41.4061 181.657 41.4907C181.737 41.5711 181.866 41.6113 182.044 41.6113H182.323V42.5C182.29 42.5339 182.171 42.5508 181.968 42.5508C181.511 42.5508 181.183 42.4535 180.984 42.2588C180.785 42.0599 180.673 41.7256 180.648 41.2559C180.377 41.6663 179.99 41.9985 179.486 42.2524C178.987 42.5021 178.443 42.627 177.855 42.627C177.118 42.627 176.528 42.4302 176.084 42.0366C175.639 41.6388 175.417 41.1162 175.417 40.4688ZM176.433 40.4434C176.433 40.8581 176.564 41.1776 176.826 41.4019C177.089 41.6261 177.457 41.7383 177.931 41.7383C178.659 41.7383 179.281 41.5267 179.797 41.1035C180.313 40.6761 180.572 40.1598 180.572 39.5547V38.2598C180.394 38.3994 180.163 38.5094 179.88 38.5898C179.596 38.6702 179.217 38.7464 178.743 38.8184C178.536 38.8564 178.371 38.8882 178.248 38.9136C178.13 38.9347 177.977 38.9707 177.791 39.0215C177.605 39.068 177.457 39.1167 177.347 39.1675C177.237 39.2183 177.116 39.286 176.985 39.3706C176.858 39.451 176.759 39.5399 176.687 39.6372C176.615 39.7345 176.553 39.853 176.503 39.9927C176.456 40.1281 176.433 40.2783 176.433 40.4434ZM184.52 41.5288C183.834 40.7925 183.491 39.8467 183.491 38.6914C183.491 37.5361 183.834 36.5924 184.52 35.8604C185.21 35.124 186.094 34.7559 187.173 34.7559C187.99 34.7559 188.692 34.9611 189.281 35.3716C189.873 35.7778 190.271 36.3343 190.474 37.041L189.534 37.3711C189.352 36.8421 189.054 36.4232 188.639 36.1143C188.225 35.8011 187.736 35.6445 187.173 35.6445C186.386 35.6445 185.749 35.9281 185.262 36.4951C184.776 37.0579 184.532 37.79 184.532 38.6914C184.532 39.5928 184.776 40.327 185.262 40.894C185.749 41.4569 186.386 41.7383 187.173 41.7383C187.736 41.7383 188.227 41.5838 188.646 41.2749C189.069 40.966 189.365 40.5534 189.534 40.0371L190.474 40.3418C190.258 41.0527 189.856 41.6113 189.268 42.0176C188.684 42.4238 187.986 42.627 187.173 42.627C186.094 42.627 185.21 42.2609 184.52 41.5288ZM191.058 35.7969V34.8828H197.761V35.7969H194.917V42.5H193.902V35.7969H191.058ZM199.284 42.5V34.8828H200.3V37.9551H202.611C203.41 37.9551 204.049 38.1646 204.528 38.5835C205.01 39.0024 205.251 39.5547 205.251 40.2402C205.251 40.9173 205.01 41.4632 204.528 41.8779C204.045 42.2926 203.406 42.5 202.611 42.5H199.284ZM200.3 41.5859H202.585C203.093 41.5859 203.491 41.4674 203.779 41.2305C204.066 40.9893 204.21 40.6592 204.21 40.2402C204.21 39.8086 204.066 39.4722 203.779 39.231C203.491 38.9897 203.093 38.8691 202.585 38.8691H200.3V41.5859Z" fill="white"/>
    </g>
    <defs>
        <filter id="filter0_b_20_2375" x="-24.6007" y="-24.6" width="267.2" height="125.2" filterUnits="userSpaceOnUse" color-interpolation-filters="sRGB">
            <feFlood flood-opacity="0" result="BackgroundImageFix"/>
            <feGaussianBlur in="BackgroundImageFix" stdDeviation="12.3"/>
            <feComposite in2="SourceAlpha" operator="in" result="effect1_backgroundBlur_20_2375"/>
            <feBlend mode="normal" in="SourceGraphic" in2="effect1_backgroundBlur_20_2375" result="shape"/>
        </filter>
        <linearGradient id="paint0_linear_20_2375" x1="-0.000727064" y1="5.11473" x2="213.999" y2="111.615" gradientUnits="userSpaceOnUse">
            <stop stop-color="#D3D3D3"/>
            <stop offset="1" stop-color="#D3D3D3" stop-opacity="0"/>
        </linearGradient>
    </defs>
</svg>
