<svg width="99" height="44" viewBox="0 0 99 44" fill="none" xmlns="http://www.w3.org/2000/svg">
<rect width="99" height="44" rx="22" fill="white"/>
<path d="M23.712 26.592C24.2667 26.7947 24.7787 26.848 25.248 26.752C25.7173 26.6453 26.1387 26.288 26.512 25.68L27.056 24.816L27.216 24.64L31.328 16.8H32.912L27.936 26.016C27.5627 26.72 27.1253 27.2533 26.624 27.616C26.1333 27.968 25.6 28.16 25.024 28.192C24.4587 28.2347 23.8827 28.128 23.296 27.872L23.712 26.592ZM27.168 26.064L22.256 16.8H23.968L28.048 24.784L27.168 26.064ZM33.988 28V19.52H37.924C38.916 19.52 39.6947 19.712 40.26 20.096C40.836 20.4693 41.124 21.0027 41.124 21.696C41.124 22.3893 40.852 22.928 40.308 23.312C39.7747 23.6853 39.0653 23.872 38.18 23.872L38.42 23.456C39.4333 23.456 40.1853 23.6427 40.676 24.016C41.1667 24.3893 41.412 24.9387 41.412 25.664C41.412 26.4 41.1347 26.976 40.58 27.392C40.036 27.7973 39.1987 28 38.068 28H33.988ZM35.492 26.816H37.956C38.596 26.816 39.076 26.72 39.396 26.528C39.716 26.3253 39.876 26.0053 39.876 25.568C39.876 25.12 39.7267 24.7947 39.428 24.592C39.14 24.3787 38.6813 24.272 38.052 24.272H35.492V26.816ZM35.492 23.168H37.796C38.3827 23.168 38.8253 23.0613 39.124 22.848C39.4333 22.624 39.588 22.3147 39.588 21.92C39.588 21.5147 39.4333 21.2107 39.124 21.008C38.8253 20.8053 38.3827 20.704 37.796 20.704H35.492V23.168ZM43.8161 28V19.52H45.3521V28H43.8161ZM44.5841 17.888C44.2855 17.888 44.0348 17.792 43.8321 17.6C43.6401 17.408 43.5441 17.1733 43.5441 16.896C43.5441 16.608 43.6401 16.368 43.8321 16.176C44.0348 15.984 44.2855 15.888 44.5841 15.888C44.8828 15.888 45.1281 15.984 45.3201 16.176C45.5228 16.3573 45.6241 16.5867 45.6241 16.864C45.6241 17.152 45.5281 17.3973 45.3361 17.6C45.1441 17.792 44.8935 17.888 44.5841 17.888ZM48.3474 28V19.52H49.8834V25.696L55.0834 19.52H56.4754V28H54.9394V21.824L49.7554 28H48.3474ZM52.3154 18.416C51.5367 18.416 50.9234 18.2293 50.4754 17.856C50.038 17.472 49.814 16.9227 49.8034 16.208H50.8434C50.854 16.6133 50.9874 16.9333 51.2434 17.168C51.51 17.4027 51.862 17.52 52.2994 17.52C52.7367 17.52 53.0887 17.4027 53.3554 17.168C53.622 16.9333 53.7607 16.6133 53.7714 16.208H54.8434C54.8327 16.9227 54.6034 17.472 54.1554 17.856C53.7074 18.2293 53.094 18.416 52.3154 18.416ZM61.1368 28V20.464L61.5208 20.864H58.0328V19.52H65.7768V20.864H62.3048L62.6727 20.464V28H61.1368ZM67.3474 28V19.52H68.8834V25.696L74.0834 19.52H75.4754V28H73.9394V21.824L68.7554 28H67.3474Z" fill="#101010"/>
</svg>
