<svg width="97" height="44" viewBox="0 0 97 44" fill="none" xmlns="http://www.w3.org/2000/svg">
    <rect x="1" y="1" width="95" height="42" rx="21" stroke="white" stroke-width="2"/>
    <path d="M30.32 28.128C28.848 28.128 27.6907 27.7067 26.848 26.864C26.0053 26.0213 25.584 24.7893 25.584 23.168V16.8H27.184V23.104C27.184 24.352 27.456 25.264 28 25.84C28.5547 26.416 29.3333 26.704 30.336 26.704C31.3493 26.704 32.128 26.416 32.672 25.84C33.2267 25.264 33.504 24.352 33.504 23.104V16.8H35.056V23.168C35.056 24.7893 34.6347 26.0213 33.792 26.864C32.96 27.7067 31.8027 28.128 30.32 28.128ZM36.4059 28L41.4779 16.8H43.0619L48.1499 28H46.4699L41.9419 17.696H42.5819L38.0539 28H36.4059ZM38.5659 25.2L38.9979 23.92H45.3019L45.7659 25.2H38.5659Z" fill="white"/>
    <path d="M57 19L64.3161 25.8588C64.7007 26.2194 65.2993 26.2194 65.6839 25.8588L73 19" stroke="white" stroke-width="1.5" stroke-linecap="round" stroke-linejoin="round"/>
</svg>
